<?xml version="1.0" encoding="UTF-8" ?>
<svg version="1.1" width="16" height="2" xmlns="http://www.w3.org/2000/svg" shape-rendering="crispEdges">
<rect x="0" y="0" width="1" height="1" fill="#181926" />
<rect x="1" y="0" width="1" height="1" fill="#1E2030" />
<rect x="2" y="0" width="1" height="1" fill="#24273A" />
<rect x="3" y="0" width="1" height="1" fill="#363A4F" />
<rect x="4" y="0" width="1" height="1" fill="#494D64" />
<rect x="5" y="0" width="1" height="1" fill="#5B6078" />
<rect x="6" y="0" width="1" height="1" fill="#6E738D" />
<rect x="7" y="0" width="1" height="1" fill="#8087A2" />
<rect x="8" y="0" width="1" height="1" fill="#939AB7" />
<rect x="9" y="0" width="1" height="1" fill="#A5ADCB" />
<rect x="10" y="0" width="1" height="1" fill="#B8C0E0" />
<rect x="11" y="0" width="1" height="1" fill="#CAD3F5" />
<rect x="12" y="0" width="1" height="1" fill="#B7BDF8" />
<rect x="13" y="0" width="1" height="1" fill="#8AADF4" />
<rect x="14" y="0" width="1" height="1" fill="#7DC4E4" />
<rect x="15" y="0" width="1" height="1" fill="#91D7E3" />
<rect x="0" y="1" width="1" height="1" fill="#8BD5CA" />
<rect x="1" y="1" width="1" height="1" fill="#A6DA95" />
<rect x="2" y="1" width="1" height="1" fill="#EED49F" />
<rect x="3" y="1" width="1" height="1" fill="#F5A97F" />
<rect x="4" y="1" width="1" height="1" fill="#EE99A0" />
<rect x="5" y="1" width="1" height="1" fill="#ED8796" />
<rect x="6" y="1" width="1" height="1" fill="#C6A0F6" />
<rect x="7" y="1" width="1" height="1" fill="#F5BDE6" />
<rect x="8" y="1" width="1" height="1" fill="#F0C6C6" />
<rect x="9" y="1" width="1" height="1" fill="#F4DBD6" />
<rect x="10" y="1" width="1" height="1" fill="#181926" />
<rect x="11" y="1" width="1" height="1" fill="#181926" />
<rect x="12" y="1" width="1" height="1" fill="#181926" />
<rect x="13" y="1" width="1" height="1" fill="#181926" />
<rect x="14" y="1" width="1" height="1" fill="#181926" />
<rect x="15" y="1" width="1" height="1" fill="#181926" />
</svg>