<?xml version="1.0" encoding="UTF-8" ?>
<svg version="1.1" width="16" height="2" xmlns="http://www.w3.org/2000/svg" shape-rendering="crispEdges">
<rect x="0" y="0" width="1" height="1" fill="#232634" />
<rect x="1" y="0" width="1" height="1" fill="#292C3C" />
<rect x="2" y="0" width="1" height="1" fill="#303446" />
<rect x="3" y="0" width="1" height="1" fill="#414559" />
<rect x="4" y="0" width="1" height="1" fill="#51576D" />
<rect x="5" y="0" width="1" height="1" fill="#626880" />
<rect x="6" y="0" width="1" height="1" fill="#737994" />
<rect x="7" y="0" width="1" height="1" fill="#838BA7" />
<rect x="8" y="0" width="1" height="1" fill="#949CBB" />
<rect x="9" y="0" width="1" height="1" fill="#A5ADCE" />
<rect x="10" y="0" width="1" height="1" fill="#B5BFE2" />
<rect x="11" y="0" width="1" height="1" fill="#C6D0F5" />
<rect x="12" y="0" width="1" height="1" fill="#BABBF1" />
<rect x="13" y="0" width="1" height="1" fill="#8CAAEE" />
<rect x="14" y="0" width="1" height="1" fill="#85C1DC" />
<rect x="15" y="0" width="1" height="1" fill="#99D1DB" />
<rect x="0" y="1" width="1" height="1" fill="#81C8BE" />
<rect x="1" y="1" width="1" height="1" fill="#A6D189" />
<rect x="2" y="1" width="1" height="1" fill="#E5C890" />
<rect x="3" y="1" width="1" height="1" fill="#EF9F76" />
<rect x="4" y="1" width="1" height="1" fill="#EA999C" />
<rect x="5" y="1" width="1" height="1" fill="#E78284" />
<rect x="6" y="1" width="1" height="1" fill="#CA9EE6" />
<rect x="7" y="1" width="1" height="1" fill="#F4B8E4" />
<rect x="8" y="1" width="1" height="1" fill="#EEBEBE" />
<rect x="9" y="1" width="1" height="1" fill="#F2D5CF" />
<rect x="10" y="1" width="1" height="1" fill="#232634" />
<rect x="11" y="1" width="1" height="1" fill="#232634" />
<rect x="12" y="1" width="1" height="1" fill="#232634" />
<rect x="13" y="1" width="1" height="1" fill="#232634" />
<rect x="14" y="1" width="1" height="1" fill="#232634" />
<rect x="15" y="1" width="1" height="1" fill="#232634" />
</svg>