<?xml version="1.0" encoding="UTF-8" ?>
<svg version="1.1" width="16" height="2" xmlns="http://www.w3.org/2000/svg" shape-rendering="crispEdges">
<rect x="0" y="0" width="1" height="1" fill="#DCE0E8" />
<rect x="1" y="0" width="1" height="1" fill="#E6E9EF" />
<rect x="2" y="0" width="1" height="1" fill="#EFF1F5" />
<rect x="3" y="0" width="1" height="1" fill="#CCD0DA" />
<rect x="4" y="0" width="1" height="1" fill="#BCC0CC" />
<rect x="5" y="0" width="1" height="1" fill="#ACB0BE" />
<rect x="6" y="0" width="1" height="1" fill="#9CA0B0" />
<rect x="7" y="0" width="1" height="1" fill="#8C8FA1" />
<rect x="8" y="0" width="1" height="1" fill="#7C7F93" />
<rect x="9" y="0" width="1" height="1" fill="#6C6F85" />
<rect x="10" y="0" width="1" height="1" fill="#5C5F77" />
<rect x="11" y="0" width="1" height="1" fill="#4C4F69" />
<rect x="12" y="0" width="1" height="1" fill="#7287FD" />
<rect x="13" y="0" width="1" height="1" fill="#1E66F5" />
<rect x="14" y="0" width="1" height="1" fill="#209FB5" />
<rect x="15" y="0" width="1" height="1" fill="#04A5E5" />
<rect x="0" y="1" width="1" height="1" fill="#179299" />
<rect x="1" y="1" width="1" height="1" fill="#40A02B" />
<rect x="2" y="1" width="1" height="1" fill="#DF8E1D" />
<rect x="3" y="1" width="1" height="1" fill="#FE640B" />
<rect x="4" y="1" width="1" height="1" fill="#E64553" />
<rect x="5" y="1" width="1" height="1" fill="#D20F39" />
<rect x="6" y="1" width="1" height="1" fill="#8839EF" />
<rect x="7" y="1" width="1" height="1" fill="#EA76CB" />
<rect x="8" y="1" width="1" height="1" fill="#DD7878" />
<rect x="9" y="1" width="1" height="1" fill="#DC8A78" />
<rect x="10" y="1" width="1" height="1" fill="#DCE0E8" />
<rect x="11" y="1" width="1" height="1" fill="#DCE0E8" />
<rect x="12" y="1" width="1" height="1" fill="#DCE0E8" />
<rect x="13" y="1" width="1" height="1" fill="#DCE0E8" />
<rect x="14" y="1" width="1" height="1" fill="#DCE0E8" />
<rect x="15" y="1" width="1" height="1" fill="#DCE0E8" />
</svg>